<?xml version="1.0" standalone="no"?>
<!DOCTYPE svg PUBLIC "-//W3C//DTD SVG 20010904//EN"
 "http://www.w3.org/TR/2001/REC-SVG-20010904/DTD/svg10.dtd">
<svg version="1.0" xmlns="http://www.w3.org/2000/svg"
 width="260.000000pt" height="260.000000pt" viewBox="0 0 260.000000 260.000000"
 preserveAspectRatio="xMidYMid meet">
<metadata>
Created by potrace 1.14, written by Peter Selinger 2001-2017
</metadata>
<g transform="translate(0.000000,260.000000) scale(0.100000,-0.100000)"
fill="#000000" stroke="none">
<path d="M1280 2449 c0 -6 -5 -7 -12 -3 -7 4 -8 3 -4 -5 4 -6 7 -46 8 -89 0
-105 0 -105 -16 -99 -8 3 -16 -2 -19 -13 -3 -13 -12 -18 -24 -16 -21 4 -49
-29 -33 -39 5 -3 7 -12 4 -20 -4 -8 1 -18 10 -21 19 -7 21 -30 3 -37 -9 -3
-13 -19 -11 -45 1 -32 -1 -39 -15 -37 -13 1 -16 14 -16 61 0 37 -6 67 -15 80
-16 22 -48 45 -36 26 3 -6 -3 -14 -15 -17 -11 -4 -18 -9 -15 -12 3 -3 -6 -15
-20 -25 -19 -15 -22 -23 -14 -33 8 -10 8 -15 -1 -20 -7 -5 -24 5 -41 24 -16
17 -33 31 -38 31 -20 0 -40 -13 -40 -26 0 -8 -6 -13 -12 -12 -8 2 -12 -7 -11
-24 1 -19 -3 -28 -13 -28 -8 0 -15 -7 -15 -15 -1 -8 -3 -19 -4 -25 -1 -5 -3
-13 -4 -16 0 -4 -7 -1 -15 5 -8 7 -12 21 -9 31 4 14 0 20 -11 20 -9 0 -16 6
-16 14 0 22 -48 27 -55 5 -4 -11 -13 -19 -21 -19 -8 0 -14 -7 -14 -16 0 -8 -4
-12 -10 -9 -5 3 -11 0 -12 -7 0 -7 -2 -17 -3 -23 -2 -5 -3 -16 -4 -23 0 -7 -5
-11 -11 -7 -13 8 -42 -40 -45 -76 -1 -16 -10 -38 -19 -48 -9 -10 -13 -21 -9
-25 4 -4 -3 -16 -17 -28 -14 -11 -19 -16 -11 -12 10 5 12 3 5 -7 -13 -21 -14
-39 -2 -39 6 0 5 -6 -2 -15 -7 -8 -18 -15 -24 -15 -7 0 -10 -19 -8 -55 3 -45
1 -55 -12 -55 -9 0 -15 -3 -15 -7 1 -5 1 -15 0 -23 -1 -13 -2 -13 -11 0 -8 13
-11 11 -16 -7 -4 -13 -13 -23 -20 -23 -19 0 -18 -19 1 -26 8 -4 15 -15 15 -26
0 -19 79 -107 81 -90 0 4 4 -2 8 -13 5 -11 5 -24 1 -30 -5 -5 -9 -13 -9 -18
-2 -11 23 -36 30 -31 4 2 6 -22 5 -54 -1 -35 -6 -56 -13 -55 -14 3 -24 -35
-12 -43 5 -3 6 -11 2 -17 -14 -23 -10 -50 9 -55 10 -2 18 -10 18 -17 0 -18 21
-24 43 -13 11 6 17 5 17 -2 0 -6 4 -9 9 -6 5 3 11 -1 15 -9 3 -8 17 -15 31
-15 24 0 33 -19 25 -55 -1 -5 2 -7 6 -3 14 15 34 -13 24 -32 -7 -13 -7 -21 0
-25 6 -4 8 -11 4 -16 -3 -5 -10 -7 -15 -3 -5 3 -8 2 -7 -3 4 -11 -53 -69 -64
-65 -4 1 -8 -5 -8 -13 0 -8 -6 -15 -13 -15 -8 0 -14 -7 -14 -15 0 -8 6 -15 13
-15 20 0 27 -19 14 -35 -7 -8 -10 -16 -6 -16 3 -1 12 -2 19 -3 6 -1 11 -7 9
-14 -1 -7 2 -12 6 -12 11 0 11 -30 0 -31 -4 -1 -22 -2 -40 -3 -17 0 -33 -7
-36 -14 -2 -6 -8 -10 -13 -6 -5 3 -9 1 -9 -4 0 -5 -13 -8 -30 -6 -18 2 -32 -2
-37 -11 -5 -8 -21 -16 -35 -17 -15 -1 -25 -4 -23 -6 2 -2 -12 -19 -31 -39 -40
-41 -43 -70 -11 -107 l24 -28 28 34 c17 20 35 32 47 30 10 -2 21 4 24 12 11
28 34 19 30 -13 -2 -16 3 -39 10 -52 7 -13 13 -19 14 -14 0 10 59 15 61 5 6
-44 3 -67 -13 -78 -25 -18 -23 -29 7 -34 14 -3 25 -1 25 3 0 5 10 5 23 0 25
-9 50 -4 41 10 -3 5 -1 9 4 9 6 0 8 10 4 22 -3 14 -1 19 6 14 6 -3 13 3 17 14
3 11 12 19 18 17 7 -1 12 8 12 20 0 12 13 32 28 45 15 13 27 30 27 37 0 8 6
11 15 7 9 -3 15 0 15 8 0 21 55 42 66 25 3 -5 9 -7 14 -4 4 3 10 -2 14 -10 3
-8 1 -17 -5 -20 -5 -4 -8 -9 -6 -13 4 -7 -26 -40 -40 -44 -5 -2 -8 -13 -7 -25
0 -13 -5 -23 -12 -23 -7 0 -15 -9 -19 -20 -3 -11 -11 -19 -17 -17 -7 1 -12 -9
-12 -23 0 -14 -6 -27 -14 -30 -7 -3 -14 -10 -14 -15 -1 -11 -40 -41 -50 -38
-3 1 -8 -18 -10 -42 -3 -42 2 -50 26 -46 4 1 14 -4 22 -10 8 -6 14 -7 14 -2 0
13 38 13 47 0 7 -11 9 -19 12 -66 2 -30 47 -23 49 8 1 14 7 28 13 32 19 11 44
3 47 -14 3 -12 -1 -15 -13 -11 -14 6 -16 -1 -14 -40 l3 -46 38 0 c25 0 41 5
44 15 4 8 10 13 14 10 5 -3 11 4 15 15 4 11 11 18 16 15 5 -4 9 -2 9 4 0 6 9
19 21 30 12 11 18 24 14 30 -3 6 1 14 9 17 9 3 14 9 12 13 -4 6 17 29 31 34 4
1 6 12 5 25 -2 15 2 22 12 22 17 0 19 -5 17 -66 0 -29 4 -44 15 -48 8 -3 13
-10 10 -15 -3 -5 3 -11 14 -14 11 -3 20 0 20 5 0 18 50 58 65 52 8 -3 29 3 47
14 18 11 39 17 46 15 11 -4 15 7 15 49 0 10 5 14 13 11 8 -3 14 1 14 11 0 9 6
16 14 16 8 0 16 7 20 15 9 24 26 17 26 -11 0 -28 36 -68 51 -58 5 3 7 10 3 15
-3 5 -2 8 3 7 18 -5 62 49 58 71 -2 12 0 19 5 16 12 -8 30 25 30 55 0 6 6 10
14 10 8 0 14 6 13 13 -1 33 4 47 19 47 14 0 14 3 4 15 -9 10 -9 15 -1 15 6 0
10 5 9 12 -2 7 4 12 12 13 10 0 15 9 14 28 -1 19 3 26 11 23 7 -2 17 0 22 5 6
6 14 0 21 -16 6 -14 8 -25 3 -25 -4 0 -7 -12 -5 -26 2 -18 -2 -24 -11 -20 -10
3 -15 -5 -17 -27 -2 -21 -8 -31 -17 -29 -8 2 -11 -3 -8 -12 3 -8 -2 -16 -14
-19 -15 -4 -19 -13 -17 -44 0 -22 -1 -44 -4 -49 -3 -5 0 -14 7 -21 9 -9 21 -6
50 11 20 13 37 27 36 32 -1 5 5 9 12 9 6 1 11 6 10 12 -2 7 6 14 16 18 13 4
18 14 16 30 -1 17 4 26 17 31 13 4 17 11 13 24 -4 11 0 22 10 27 8 5 17 26 18
47 2 21 11 44 20 51 9 7 14 15 10 18 -3 4 1 7 9 7 19 0 31 37 14 44 -6 2 -4 5
5 5 9 1 29 17 44 36 16 19 31 32 35 30 4 -3 10 4 13 15 3 11 1 20 -5 20 -5 0
-6 5 -3 10 3 6 -1 10 -9 10 -9 0 -16 7 -16 16 0 8 -4 13 -9 9 -5 -3 -12 4 -16
15 -3 11 -13 20 -21 20 -9 0 -14 11 -14 30 0 20 -5 30 -15 30 -8 0 -14 3 -14
8 1 4 1 18 0 32 -1 18 -4 21 -10 12 -6 -11 -9 -9 -13 6 -4 12 2 25 13 33 12 8
17 20 13 31 -3 10 -1 18 4 18 5 0 21 11 36 25 23 21 25 28 15 46 -6 12 -7 19
-1 15 6 -3 8 2 5 13 -3 12 -11 17 -19 14 -10 -4 -12 0 -8 11 4 9 1 16 -6 16
-7 0 -19 8 -26 17 -7 10 -23 18 -36 18 -13 1 -22 6 -21 13 2 7 -3 12 -11 12
-26 0 -30 39 -7 60 12 10 21 22 20 26 -4 22 2 34 16 34 9 0 12 6 9 15 -4 8
-10 12 -15 9 -8 -5 -13 10 -10 29 1 5 -2 6 -6 4 -10 -6 -28 13 -29 31 -2 28
-5 32 -19 32 -22 0 -15 32 10 47 15 9 22 9 27 0 6 -9 8 -8 8 1 0 7 5 10 11 7
6 -4 16 1 23 10 10 14 25 16 84 13 40 -1 72 -1 72 2 0 3 24 3 53 0 32 -3 51
-10 50 -17 -2 -7 12 -12 36 -11 32 0 45 -7 84 -45 51 -51 76 -55 121 -20 25
20 25 22 9 32 -10 5 -18 20 -18 33 0 17 -7 24 -29 28 -17 3 -28 8 -25 12 7 10
-47 48 -69 48 -11 0 -23 7 -26 16 -4 11 -15 14 -41 11 -27 -4 -36 -1 -40 13
-5 16 -19 17 -133 16 -88 -1 -126 -5 -125 -13 3 -14 -46 -24 -54 -10 -11 17
-11 107 0 114 6 4 7 1 2 -7 -5 -9 -4 -11 3 -6 7 4 12 14 12 22 0 8 4 13 9 9
11 -6 21 6 26 36 2 11 22 38 44 59 22 21 37 41 33 44 -3 3 -1 6 4 6 11 0 11
40 0 58 -5 9 -11 10 -20 3 -7 -6 -16 -7 -20 -3 -4 4 -23 7 -41 7 -28 1 -32 -2
-30 -22 1 -13 -3 -23 -9 -23 -6 0 -4 -5 4 -10 12 -8 11 -10 -7 -10 -14 0 -23
-6 -23 -16 0 -8 -4 -12 -10 -9 -5 3 -11 -1 -11 -9 -1 -9 -2 -20 -3 -25 0 -5
-14 -21 -29 -35 -15 -14 -25 -26 -21 -26 3 0 1 -6 -5 -14 -9 -11 -9 -15 1 -19
7 -3 8 -6 2 -6 -6 -1 -9 -14 -6 -31 3 -21 0 -32 -12 -36 -9 -3 -16 -17 -16
-29 0 -32 -17 -40 -30 -15 -6 11 -7 20 -3 20 4 0 8 11 8 25 0 14 -4 25 -8 25
-4 0 -3 9 3 20 6 11 15 18 19 15 5 -3 11 2 15 10 3 8 1 15 -5 15 -6 0 -6 7 1
20 6 11 8 25 5 30 -3 6 1 10 11 10 13 0 15 7 12 35 -2 19 0 35 5 35 4 0 5 5 1
12 -5 8 -2 9 10 5 10 -4 15 -3 11 3 -3 6 0 10 7 10 8 0 9 3 3 8 -20 14 -11 76
14 100 13 12 19 22 14 22 -6 0 -8 17 -6 40 4 38 -2 46 -29 41 -5 0 -8 4 -8 10
0 8 -4 9 -13 0 -8 -6 -17 -8 -20 -4 -4 3 -9 -2 -13 -11 -3 -9 -10 -14 -14 -11
-13 8 -18 -19 -17 -84 2 -43 -2 -61 -10 -61 -7 0 -13 -5 -13 -11 0 -5 -5 -7
-11 -3 -8 4 -8 1 0 -14 9 -17 8 -23 -8 -31 -14 -8 -18 -20 -17 -50 2 -30 -2
-41 -15 -44 -13 -4 -17 -13 -14 -36 3 -21 -1 -35 -13 -43 -20 -15 -28 -63 -9
-51 9 5 8 2 0 -9 -7 -8 -10 -17 -7 -21 3 -3 3 -15 -1 -26 -5 -17 -10 -19 -31
-11 -17 7 -23 7 -19 0 7 -12 -5 -13 -21 -2 -15 9 -21 43 -11 60 5 7 3 12 -5
12 -8 0 -9 3 -3 8 6 4 10 21 10 37 0 20 5 29 13 27 9 -2 12 6 11 20 -2 13 0
29 4 36 5 6 4 12 0 12 -13 0 -13 39 -1 46 7 5 8 2 3 -7 -8 -12 -6 -12 8 0 9 7
17 20 17 27 0 8 7 14 15 14 11 0 14 7 11 26 -5 28 7 69 20 69 5 0 8 8 7 17 -2
10 5 22 15 27 11 6 17 20 16 38 -1 31 13 66 24 59 10 -6 9 45 -1 60 -3 6 -3
14 1 18 11 12 10 86 -2 86 -7 0 -8 3 -1 8 13 9 13 85 0 94 -6 5 -5 8 3 8 9 0
10 5 3 17 -7 13 -23 18 -63 18 l-53 0 1 -157 c1 -154 0 -158 -20 -159 -12 0
-15 -3 -8 -6 10 -4 10 -8 1 -20 -10 -11 -10 -16 -1 -22 9 -6 7 -15 -10 -36
-13 -16 -21 -38 -20 -48 2 -12 -1 -17 -7 -13 -6 4 -11 2 -11 -4 0 -6 -4 -9 -9
-6 -5 4 -7 -4 -4 -15 4 -14 0 -26 -10 -34 -9 -6 -16 -25 -15 -41 1 -59 -2 -74
-17 -74 -8 0 -14 -5 -13 -11 2 -6 -4 -13 -13 -14 -12 -2 -15 7 -15 41 0 23 3
41 7 39 4 -3 13 3 20 12 11 12 11 17 2 20 -9 3 -9 12 -2 29 12 32 11 37 -2 28
-8 -4 -8 -1 -1 12 10 19 12 26 12 44 0 6 7 10 15 10 11 0 14 7 9 24 -8 33 4
66 24 66 12 0 13 3 5 11 -7 7 -8 21 -2 42 7 24 5 33 -11 47 -11 10 -20 22 -20
28 0 6 -7 9 -16 5 -9 -3 -14 -13 -11 -24 3 -12 -2 -24 -13 -32 -12 -8 -19 -25
-18 -43 1 -46 -1 -56 -12 -49 -13 8 -30 -36 -20 -50 14 -20 5 -106 -13 -120
-9 -7 -17 -18 -17 -24 0 -7 -4 -9 -10 -6 -5 3 -10 -2 -11 -12 -5 -82 -4 -120
4 -130 4 -6 4 -14 -2 -17 -6 -4 -8 -13 -5 -20 6 -16 -11 -24 -50 -22 -33 2
-47 23 -22 32 9 3 16 17 16 29 0 13 5 25 11 27 7 2 12 15 13 28 1 14 6 31 10
39 5 8 5 12 0 8 -5 -3 -9 8 -9 24 0 16 4 29 9 29 5 0 4 6 -3 13 -8 10 -7 17 1
25 8 8 8 12 1 12 -16 0 -10 33 9 51 12 11 17 31 16 70 -1 77 0 82 16 76 9 -4
13 0 11 11 -1 9 3 23 9 31 7 9 7 12 1 9 -25 -15 -37 11 -38 80 0 39 -4 69 -9
66 -4 -3 -8 2 -8 10 0 9 -5 16 -11 16 -5 0 -7 5 -4 11 4 6 -2 19 -14 30 -24
23 -61 33 -61 18z"/>
</g>
</svg>
